# xmcd
#
# Track frame offsets: 
#        150
#        14732
#        28895
#        57157
#        73275
#        102030
#        129125
#        145662
#        174835
#        185387
#        201515
#        229765
#        251207
#        263275
#
# Disc length: 3773 seconds
#
# Revision: 10
# Processed by: cddbd v1.5.2PL0 Copyright (c) Steve Scherf et al.
# Submitted via: ExactAudioCopy v1.0b4
#
DISCID=c20ebb0e
DTITLE=Cesaria Evora - Cabo Verde
DYEAR=1997
DGENRE=Blues
TTITLE0=Tchintchirote
TTITLE1=Sabine Larga'm
TTITLE2=Partida
TTITLE3=Sangre de Beirona
TTITLE4=Apocalipse
TTITLE5=Mar E Morada de Sodade
TTITLE6=Bo E di Meu Cretcheu
TTITLE7=Coragem Irmon
TTITLE8=Quem Bô Ê
TTITLE9=Regresso
TTITLE10=Zebra
TTITLE11=Mae Velha
TTITLE12=Pe di Boi
TTITLE13=Ess Pais
EXTD=YEAR: 1997
EXTT0=
EXTT1=
EXTT2=
EXTT3=
EXTT4=
EXTT5=
EXTT6=
EXTT7=
EXTT8=
EXTT9=
EXTT10=
EXTT11=
EXTT12=
EXTT13=
PLAYORDER=
